<svg version="1.1" xmlns="http://www.w3.org/2000/svg" xmlns:xlink="http://www.w3.org/1999/xlink" x="0px" y="0px">
<style type="text/css">
	.st0{display:none;}
	.st1{display:inline;fill:#421919;}
	.st2{opacity:0.43;}
	.st3{fill:#FFD3BD;}
	.st4{fill:#FFF1EB;}
	.st5{fill:#FFBA9C;}
</style>
<g id="OBJECTS">
	<g id="XMLID_34_">
		<path id="XMLID_151_" class="st2" d="M16.8,62.4L16.7,64c-0.2,4.3,10.1,22.8,11.4,25.1c1.3,2.3,6.3,11.9,7.2,16.2
			c0,0-0.6,8.4-1,16c-0.3,3.2-0.6,6.5-0.6,9.2c0,0.6,0,1.1,0.1,1.6c0,0,0,0,0,0c0,1.9,0.4,3.8,0.9,5.5c1.1,3.7,2.8,6,4.1,7.8
			c0,0,0,0,0,0c1.6,2.3,1.7,4.5,1.7,4.5c-0.1,0.5-0.3,5.6-0.4,12.3l0,0l0,0c-0.4,13-0.9,31.5-0.9,31.5h43.4L82.1,159
			c0,0,11.8-5.4,17.9-16.4c6.1-11,20.8-24,24.3-25.2c0,0,5.2-3.3,7.8-3.8c0.1,0,1.6-0.1,3.1-0.1c0.7,0,1.5,0,2.1-0.1c0,0,0,0,0,0
			c0.6,0,1.2-0.2,1.7-0.4c0.1,0,0.2-0.1,0.3-0.1c0,0,0,0,0,0c0.1,0,0.2-0.1,0.2-0.1c0.9-0.5,1.4-1.4,0.9-2.7c-0.1-0.6-0.4-1.3-0.9-2
			c0,0-2.7-5.6-12.8-4.4c-8,1-9.8,3.3-18.1,6.4c-4,1.5-6.4,1.1-7.9,0.2c-0.5-0.3-0.9-0.7-1.2-1c-0.3-0.4-0.6-0.8-0.9-1.2l0,0
			c-0.3-0.6-0.6-1.2-0.7-1.7c-0.7-2.7,0.4-16.1,0.9-19.7c0.5-3.6,5-18.3,6.9-26.2c1.7-7.4,4.4-20.5,1.9-25.3v0c0,0,0,0,0,0
			c-0.1-0.1-0.2-0.3-0.2-0.4c0,0,0,0,0,0c0-0.1-0.1-0.1-0.1-0.2c-1.3-1.9-2.6-1.8-2.6-1.8s0,0-0.1,0c-0.8-0.1-1.5,0.1-2.2,0.5
			c-0.5,0.2-1,0.6-1.4,1.1c0,0,0,0,0,0c-1,1-1.8,2.4-2.2,3.7c-1.1,3.3-4.9,16.9-6.5,20.5c-1.1,2.4-3,10.4-4.4,15.6
			c-1.3,3.9-3.2,7.6-5.6,7c-0.1-0.1-0.2-0.1-0.4-0.2c-0.5-0.5-0.7-1.6-0.7-2.8c0.1-5.1,3-15.5,2.8-21.6c-0.2-7.8,1-15.4,1.7-22.6
			c0.4-3.4-0.1-6.2-1.2-8.3c0,0,0,0,0,0c0,0,0-0.1-0.1-0.1c-0.1-0.1-0.1-0.3-0.2-0.4c-0.1-0.2-0.2-0.4-0.4-0.6
			c-0.6-0.9-1.3-1.5-2.1-1.9c0,0,0,0,0,0c-1.1-0.8-2.3-0.5-2.3-0.5s-0.1,0-0.2,0c-0.9,0.1-1.6,0.4-2.3,1c-0.4,0.3-0.7,0.7-1,1.2
			c-1.4,2.1-2.4,5.6-2.9,10.3c-1,8-3.4,22.6-4,26.4c-0.1,0.4-0.1,0.8-0.2,1.3v0l0,0c0,0.2-0.1,0.5-0.1,0.8l0,0.1
			c0,0-1.5,13-1.8,13.9c0,0,0,0.1,0,0.1c-0.3,0.9-1.4,2.8-3.8,2.7c-0.6-0.1-1.3-0.4-1.8-1c0,0-0.1-0.1-0.1-0.1c0,0,0,0,0,0
			c-0.6-0.9-1-2.1-1.2-2.9c0-0.1-0.1-0.2-0.1-0.3c0,0,0,0,0,0c-1-4.7-1.1-13.3-2.7-19.1c-1.7-6.1-3.9-20.2-3.9-20.6
			c0-0.3-0.3-3.6-2.3-5.5c0,0-0.1-0.1-0.2-0.2c-0.2-0.2-0.5-0.4-0.9-0.6c0,0,0,0,0,0c-0.4-0.2-1-0.4-1.5-0.5c0,0,0,0,0,0
			c-0.1,0-0.2,0-0.2,0c-1-0.1-1.4,0-2.2,0.3c-0.1,0-0.2,0.1-0.3,0.1c0,0-0.1,0-0.1,0c-1.6,0.6-1.9,1.6-2,2.2
			c-1.3,2.7-1.2,7.3-0.8,12.3c0.7,8,1.1,19.7,2,22.8c0.5,1.9,1,7.5,1.3,11.9c0,1.3-0.1,4.6-1.9,6.8c-2.4,2.8-5.5-1.9-5.5-1.9
			c-0.2-0.3-0.4-0.6-0.6-1C34,75.6,24.4,58.8,21.6,58.7c-0.4-0.1-0.8-0.1-1.2,0C18.4,58.8,16.9,60.5,16.8,62.4z M38.2,83.3
			c0,0,0.4,0.6,1,1.3C38.9,84.3,38.6,83.8,38.2,83.3z"/>
		<g id="XMLID_14_">
			<g id="XMLID_6_">
				<path id="XMLID_1_" class="st3" d="M95.3,183.2l-0.4-34.8c0,0,11.8-5.4,17.9-16.4c6.1-11,20.8-24,24.3-25.2c0,0,5.7-3.6,8.1-3.8
					c2.4-0.2,7.2,0.5,8.1-1.7c0.9-2.2-1.1-8.6-13.3-7.4c-12.2,1.2-16,6.4-20.9,6.9c-4.9,0.6-7.6-2.5-8.2-5.1
					c-0.7-2.7,0.4-16.1,0.9-19.7c0.5-3.6,5-18.3,6.9-26.2c1.8-8,4.8-22.4,1.2-26.2c-3.6-3.8-7.2,0.5-8.3,3.8
					c-1.1,3.3-4.9,16.9-6.5,20.5c-1.6,3.6-4.9,18.9-5.8,20.2c-0.9,1.3-2.1,3.8-4.5,2.2c-2.5-1.6,2.3-16.5,2.1-24.4s1-15.4,1.7-22.6
					c0.7-7.1-2.2-11.8-6-11.8s-5.8,4.5-6.7,12.5c-1,8-3.4,22.6-4,26.4c-0.6,3.8-0.9,15.6-2.8,17.5c-2,2-4.9,2.2-6.1-2.2
					c-1.2-4.4-1.2-13.9-2.9-20C68,39.5,65.8,25.4,65.8,25c0-0.4-0.6-7-5.9-6.9c-5.3,0.1-5.5,7-4.8,15c0.7,8,1.1,19.7,2,22.8
					c0.9,3.1,1.7,16.3,1.3,17.7c-0.4,1.3-4.4,4.9-8.1-1.8C46.7,65,37.1,48.2,34.3,48.1c-2.8-0.1-4.7,1-4.9,5.3
					c-0.2,4.3,10.1,22.8,11.4,25.1c1.3,2.3,6.3,11.9,7.2,16.2c1,4.4-1.8,17-1.6,25.2c0.2,13.3,7.5,15.1,6.8,19.4
					c-0.2,1.5-1.3,43.8-1.3,43.8H95.3z"/>
				<path id="XMLID_3_" class="st4" d="M144.8,102.9c0,0-0.4-3.4,1.9-4.4c2.3-0.9,5.7-1.4,6.6,0.8c0.9,2.2-1.4,3.3-3.2,3.4
					C148.2,102.8,144.8,102.9,144.8,102.9z"/>
				<path id="XMLID_5_" class="st4" d="M120.4,24.4c0,0,0.1,5.3-0.9,6.6c-1,1.3-6.8,0.7-7.3,0c-0.5-0.7,0-5.7,1.4-7.5
					c1.4-1.8,3.7-1.5,3.7-1.5S119,21.9,120.4,24.4z"/>
				<path id="XMLID_4_" class="st4" d="M97.3,14.9c0,0-0.9,4.7-1.5,6c-1.1,2.2-4,1.4-5.8,1.3c-3.2-0.2-2.5-4.1-1.8-7.3
					c0.7-3.1,4-3.5,4-3.5s1.2-0.3,2.3,0.5C95.6,12.7,96.7,13.6,97.3,14.9z"/>
				<path id="XMLID_7_" class="st4" d="M63.6,19.6c0,0,0.4,5,0.1,6c-0.7,1.8-6.7,1.8-7.1,1.2c-0.6-0.7-0.8-4.5-0.6-5.8
					c0.1-0.6,0.4-1.6,2-2.3c1.2-0.5,1.5-0.5,2.7-0.4c1.2,0.1,2.3,0.7,2.7,1.1C63.7,19.7,63.6,19.6,63.6,19.6z"/>
				<path id="XMLID_8_" class="st4" d="M34.3,48.1c0,0,1.7,3.1,2.1,4.9c0.4,1.8-2.2,4-3.4,4s-3.5-3.7-3.5-3.7l0.1-1.5
					c0.1-2,1.6-3.6,3.6-3.8C33.5,48,33.9,48,34.3,48.1z"/>
			</g>
			<path id="XMLID_9_" class="st5" d="M102.6,55.4c0,0,1.6,12.6-4.5,16.8c-6.1,4.2-3.9-7.8-3.9-7.8s-1,5.5,0.8,6
				C99.7,71.6,102.6,55.4,102.6,55.4z"/>
			<path id="XMLID_10_" class="st5" d="M81.5,51.6c0,0,1.3,9.5-0.6,14.8c-1.9,5.3-4.3,5.1-6.4,4.3c-2.1-0.9-2.1-6.4-2.1-6.4
				s0.8,4.8,3.3,4.9c2.5,0,3.6-1.9,3.9-2.8c0.3-0.9,1.8-13.9,1.8-13.9L81.5,51.6z"/>
			<path id="XMLID_11_" class="st5" d="M58.4,67.2c0,0,2.4,5.3,0,9.1C55.9,80,51,72.7,51,72.7s3.2,4.7,5.5,1.9
				C58.9,71.9,58.4,67.2,58.4,67.2z"/>
			<path id="XMLID_12_" class="st5" d="M152.5,97.3c0,0-9.4-5.1-17-1.2c-7.6,3.9-16.7,12.1-24,1.2c0,0,1.7,5.1,10.1,2
				s10.1-5.4,18.1-6.4C149.8,91.7,152.5,97.3,152.5,97.3z"/>
			<path id="XMLID_13_" class="st5" d="M48,94.7c0,0,3.2,6.7,2.2,13.4c-1,6.7-0.8,11.9,3.4,16.8c4.2,4.9,6.1,14.9-0.9,26.6l0.4-12.3
				c0,0-0.1-2.2-1.7-4.5c-1.6-2.3-5-7.5-5-13.4C46.6,115.7,48,94.7,48,94.7z"/>
		</g>
	</g>
</g>
<g id="DESIGNED_BY_FREEPIK" class="st0">
</g>
</svg>
