<svg version="1.1" xmlns="http://www.w3.org/2000/svg" xmlns:xlink="http://www.w3.org/1999/xlink" x="0px" y="0px">
<style type="text/css">
	.st0{display:none;}
	.st1{display:inline;fill:#421919;}
	.st2{opacity:0.43;}
	.st3{fill:#FFD3BD;}
	.st4{fill:#FFF1EB;}
	.st5{fill:#FFBA9C;}
</style>
<g id="OBJECTS">
	<g id="XMLID_34_">
		<path id="XMLID_151_" class="st2" d="M149.8,58.7c-0.4,0-0.8,0-1.2,0c-2.8,0.1-12.4,16.9-16.1,23.7c-0.2,0.4-0.4,0.7-0.6,1
			c0,0-3.2,4.7-5.5,1.9c-1.8-2.2-2-5.5-1.9-6.8c0.2-4.4,0.8-10,1.3-11.9c0.9-3.1,1.2-14.8,2-22.8c0.5-5,0.5-9.6-0.8-12.3
			c-0.1-0.6-0.5-1.5-2-2.2c0,0-0.1,0-0.1,0c-0.1-0.1-0.2-0.1-0.3-0.1c-0.8-0.3-1.2-0.3-2.2-0.3c-0.1,0-0.2,0-0.2,0c0,0,0,0,0,0
			c-0.6,0.1-1.1,0.3-1.5,0.5c0,0,0,0,0,0c-0.4,0.2-0.7,0.4-0.9,0.6c-0.1,0.1-0.1,0.1-0.2,0.2c-2,1.9-2.3,5.3-2.3,5.5
			c0,0.4-2.2,14.5-3.9,20.6c-1.6,5.7-1.7,14.4-2.7,19.1c0,0,0,0,0,0c0,0.1-0.1,0.2-0.1,0.3c-0.2,0.8-0.6,2-1.2,2.9c0,0,0,0,0,0
			c0,0-0.1,0.1-0.1,0.1c-0.5,0.6-1.2,0.9-1.8,1c-2.4,0-3.5-1.8-3.8-2.7c0,0,0-0.1,0-0.1c-0.3-1-1.8-13.9-1.8-13.9l0-0.1
			c0-0.3-0.1-0.5-0.1-0.8l0,0v0c-0.1-0.5-0.1-0.9-0.2-1.3c-0.6-3.8-3.1-18.4-4-26.4c-0.6-4.7-1.5-8.2-2.9-10.3
			c-0.3-0.5-0.6-0.9-1-1.2c-0.7-0.6-1.4-0.9-2.3-1c-0.1,0-0.2,0-0.2,0s-1.2-0.3-2.3,0.5c0,0,0,0,0,0c-0.8,0.4-1.5,1.1-2.1,1.9
			c-0.1,0.2-0.2,0.4-0.4,0.6c-0.1,0.1-0.1,0.2-0.2,0.4c0,0,0,0.1-0.1,0.1c0,0,0,0,0,0c-1,2-1.5,4.9-1.2,8.3c0.7,7.1,2,14.7,1.7,22.6
			C86,62.5,88.9,72.9,89,78c0,1.2-0.1,2.3-0.7,2.8c-0.1,0.1-0.3,0.2-0.4,0.2c-2.4,0.6-4.2-3.1-5.6-7C81,68.8,79.1,60.8,78,58.3
			c-1.6-3.6-5.4-17.2-6.5-20.5c-0.4-1.3-1.2-2.7-2.2-3.7c0,0,0,0,0,0c-0.4-0.5-0.9-0.8-1.4-1.1c-0.7-0.4-1.5-0.6-2.2-0.5
			c-0.1,0-0.1,0-0.1,0s-1.4-0.1-2.6,1.8c0,0-0.1,0.1-0.1,0.2c0,0,0,0,0,0c-0.1,0.1-0.2,0.3-0.2,0.4c0,0,0,0,0,0v0
			c-2.5,4.8,0.2,17.9,1.9,25.3c1.8,8,6.4,22.7,6.9,26.2c0.5,3.6,1.6,17,0.9,19.7c-0.1,0.6-0.4,1.2-0.7,1.7l0,0
			c-0.3,0.4-0.6,0.9-0.9,1.2c-0.4,0.4-0.8,0.7-1.2,1c-1.5,0.8-4,1.2-7.9-0.2c-8.3-3.1-10.1-5.4-18.1-6.4
			c-10.1-1.2-12.8,4.4-12.8,4.4c-0.5,0.7-0.7,1.4-0.9,2c-0.5,1.3,0,2.1,0.9,2.7c0.1,0.1,0.2,0.1,0.2,0.1c0,0,0,0,0,0
			c0.1,0,0.2,0.1,0.3,0.1c0.6,0.2,1.2,0.3,1.7,0.4c0,0,0,0,0,0c0.7,0.1,1.4,0.1,2.1,0.1c1.5,0.1,3.1,0.1,3.1,0.1
			c2.5,0.5,7.8,3.8,7.8,3.8c3.4,1.2,18.1,14.2,24.3,25.2c6.1,11,17.9,16.4,17.9,16.4l-0.4,34.8H131c0,0-0.5-18.6-0.9-31.5l0,0l0,0
			c-0.2-6.6-0.4-11.8-0.4-12.3c0,0,0.1-2.2,1.7-4.5c0,0,0,0,0,0c1.3-1.8,3-4.1,4.1-7.8c0.6-1.7,0.9-3.6,0.9-5.5c0,0,0,0,0,0
			c0-0.5,0.1-1,0.1-1.6c0.1-2.7-0.2-6-0.6-9.2c-0.4-7.6-1-16-1-16c1-4.4,5.9-13.9,7.2-16.2c1.3-2.3,11.6-20.8,11.4-25.1l-0.1-1.5
			C153.3,60.5,151.8,58.8,149.8,58.7z M131,84.6c0.6-0.7,1-1.3,1-1.3C131.6,83.8,131.3,84.3,131,84.6z"/>
		<g id="XMLID_14_">
			<g id="XMLID_6_">
				<path id="XMLID_1_" class="st3" d="M74.9,183.2l0.4-34.8c0,0-11.8-5.4-17.9-16.4c-6.1-11-20.8-24-24.3-25.2c0,0-5.7-3.6-8.1-3.8
					c-2.4-0.2-7.2,0.5-8.1-1.7c-0.9-2.2,1.1-8.6,13.3-7.4c12.2,1.2,16,6.4,20.9,6.9c4.9,0.6,7.6-2.5,8.2-5.1
					c0.7-2.7-0.4-16.1-0.9-19.7c-0.5-3.6-5-18.3-6.9-26.2c-1.8-8-4.8-22.4-1.2-26.2s7.2,0.5,8.3,3.8c1.1,3.3,4.9,16.9,6.5,20.5
					c1.6,3.6,4.9,18.9,5.8,20.2c0.9,1.3,2.1,3.8,4.5,2.2c2.5-1.6-2.3-16.5-2.1-24.4s-1-15.4-1.7-22.6c-0.7-7.1,2.2-11.8,6-11.8
					s5.8,4.5,6.7,12.5c1,8,3.4,22.6,4,26.4c0.6,3.8,0.9,15.6,2.8,17.5c2,2,4.9,2.2,6.1-2.2c1.2-4.4,1.2-13.9,2.9-20
					c1.7-6.1,3.9-20.2,3.9-20.6c0-0.4,0.6-7,5.9-6.9c5.3,0.1,5.5,7,4.8,15c-0.7,8-1.1,19.7-2,22.8c-0.9,3.1-1.7,16.3-1.3,17.7
					c0.4,1.3,4.4,4.9,8.1-1.8c3.7-6.7,13.2-23.5,16.1-23.7c2.8-0.1,4.7,1,4.9,5.3c0.2,4.3-10.1,22.8-11.4,25.1
					c-1.3,2.3-6.3,11.9-7.2,16.2c-1,4.4,1.8,17,1.6,25.2c-0.2,13.3-7.5,15.1-6.8,19.4c0.2,1.5,1.3,43.8,1.3,43.8H74.9z"/>
				<path id="XMLID_3_" class="st4" d="M25.4,102.9c0,0,0.4-3.4-1.9-4.4c-2.3-0.9-5.7-1.4-6.6,0.8c-0.9,2.2,1.4,3.3,3.2,3.4
					C22,102.8,25.4,102.9,25.4,102.9z"/>
				<path id="XMLID_5_" class="st4" d="M49.8,24.4c0,0-0.1,5.3,0.9,6.6c1,1.3,6.8,0.7,7.3,0c0.5-0.7,0-5.7-1.4-7.5
					c-1.4-1.8-3.7-1.5-3.7-1.5S51.2,21.9,49.8,24.4z"/>
				<path id="XMLID_4_" class="st4" d="M73,14.9c0,0,0.9,4.7,1.5,6c1.1,2.2,4,1.4,5.8,1.3c3.2-0.2,2.5-4.1,1.8-7.3
					c-0.7-3.1-4-3.5-4-3.5s-1.2-0.3-2.3,0.5C74.6,12.7,73.5,13.6,73,14.9z"/>
				<path id="XMLID_7_" class="st4" d="M106.7,19.6c0,0-0.4,5-0.1,6c0.7,1.8,6.7,1.8,7.1,1.2c0.6-0.7,0.8-4.5,0.6-5.8
					c-0.1-0.6-0.4-1.6-2-2.3c-1.2-0.5-1.5-0.5-2.7-0.4c-1.2,0.1-2.3,0.7-2.7,1.1C106.5,19.7,106.7,19.6,106.7,19.6z"/>
				<path id="XMLID_8_" class="st4" d="M135.9,48.1c0,0-1.7,3.1-2.1,4.9c-0.4,1.8,2.2,4,3.4,4c1.2,0,3.5-3.7,3.5-3.7l-0.1-1.5
					c-0.1-2-1.6-3.6-3.6-3.8C136.7,48,136.3,48,135.9,48.1z"/>
			</g>
			<path id="XMLID_9_" class="st5" d="M67.6,55.4c0,0-1.6,12.6,4.5,16.8c6.1,4.2,3.9-7.8,3.9-7.8s1,5.5-0.8,6
				C70.5,71.6,67.6,55.4,67.6,55.4z"/>
			<path id="XMLID_10_" class="st5" d="M88.7,51.6c0,0-1.3,9.5,0.6,14.8c1.9,5.3,4.3,5.1,6.4,4.3c2.1-0.9,2.1-6.4,2.1-6.4
				s-0.8,4.8-3.3,4.9c-2.5,0-3.6-1.9-3.9-2.8c-0.3-0.9-1.8-13.9-1.8-13.9L88.7,51.6z"/>
			<path id="XMLID_11_" class="st5" d="M111.8,67.2c0,0-2.4,5.3,0,9.1c2.4,3.8,7.4-3.6,7.4-3.6s-3.2,4.7-5.5,1.9
				C111.4,71.9,111.8,67.2,111.8,67.2z"/>
			<path id="XMLID_12_" class="st5" d="M17.7,97.3c0,0,9.4-5.1,17-1.2c7.6,3.9,16.7,12.1,24,1.2c0,0-1.7,5.1-10.1,2
				S38.6,93.9,30.6,93C20.4,91.7,17.7,97.3,17.7,97.3z"/>
			<path id="XMLID_13_" class="st5" d="M122.2,94.7c0,0-3.2,6.7-2.2,13.4c1,6.7,0.8,11.9-3.4,16.8c-4.2,4.9-6.1,14.9,0.9,26.6
				l-0.4-12.3c0,0,0.1-2.2,1.7-4.5c1.6-2.3,5-7.5,5-13.4C123.6,115.7,122.2,94.7,122.2,94.7z"/>
		</g>
	</g>
</g>
</svg>
