<?xml version="1.0" encoding="utf-8"?>
<!-- Generator: Adobe Illustrator 22.0.0, SVG Export Plug-In . SVG Version: 6.00 Build 0)  -->
<svg version="1.1" id="Layer_1" xmlns="http://www.w3.org/2000/svg" xmlns:xlink="http://www.w3.org/1999/xlink" x="0px" y="0px"
	 viewBox="0 0 1400 980" style="enable-background:new 0 0 1400 980;" xml:space="preserve">
<style type="text/css">
	.st0{fill:#FFFFFF;}
	.st1{fill:#444444;}
	.st2{fill:none;}
</style>
<g>
	<g>
		<g>
			<path class="st0" d="M60.5,888c-6.5,0-11.7-5.2-11.7-11.7c0-6.4,5.2-11.7,11.7-11.7c6.4,0,11.7,5.2,11.7,11.7
				C72.2,882.8,67,888,60.5,888z M60.5,867.3c-5,0-9.1,4.1-9.1,9.1c0,5,4.1,9.1,9.1,9.1c5,0,9.1-4.1,9.1-9.1
				C69.6,871.4,65.5,867.3,60.5,867.3z"/>
		</g>
		<g>
			<path class="st0" d="M96.3,888c-6.4,0-11.7-5.2-11.7-11.7c0-6.4,5.2-11.7,11.7-11.7c6.4,0,11.7,5.2,11.7,11.7
				C108,882.8,102.8,888,96.3,888z M96.3,867.3c-5,0-9.1,4.1-9.1,9.1c0,5,4.1,9.1,9.1,9.1c5,0,9.1-4.1,9.1-9.1
				C105.4,871.4,101.3,867.3,96.3,867.3z"/>
		</g>
		<g>
			<path class="st0" d="M324.8,750.6H296V620.1l1.6,0.4c16,3.8,27.2,18,27.2,34.4V750.6z M298.7,748h23.5v-93.1
				c0-14.7-9.6-27.4-23.5-31.4V748z"/>
		</g>
		<g>
			<path class="st0" d="M150.2,750.6h-28.8v-95.7c0-16.4,11.2-30.6,27.2-34.4l1.6-0.4V750.6z M124,748h23.5V623.5
				c-13.9,4.1-23.5,16.8-23.5,31.4V748z"/>
		</g>
		<g>
			<path class="st0" d="M298.7,767.2H147.5V585.6h151.1V767.2z M150.2,764.5H296V588.2H150.2V764.5z"/>
		</g>
		<g>
			<path class="st0" d="M398.9,922.9H296v-22.2H150.2v22.2H47.3c-14.7,0-26.7-12-26.7-26.7V774.7c0-14.7,12-26.7,26.7-26.7h102.9
				v16.6H296V748h102.9c14.7,0,26.7,12,26.7,26.7v121.4C425.6,910.9,413.6,922.9,398.9,922.9z M298.7,920.2h100.2
				c13.3,0,24.1-10.8,24.1-24.1V774.7c0-13.3-10.8-24.1-24.1-24.1H298.7v16.6H147.5v-16.6H47.3c-13.3,0-24.1,10.8-24.1,24.1v121.4
				c0,13.3,10.8,24.1,24.1,24.1h100.2V898h151.1V920.2z"/>
		</g>
		<g>
			<path class="st0" d="M298.7,963.8H147.5V898h151.1V963.8z M150.2,961.2H296v-60.5H150.2V961.2z"/>
		</g>
		<g>
			<rect x="122.7" y="764.5" class="st0" width="200.8" height="2.6"/>
		</g>
		<g>
			<rect x="122.7" y="898" class="st0" width="200.8" height="2.6"/>
		</g>
		<g>
			<rect x="163.3" y="913.2" class="st0" width="119.7" height="2.6"/>
		</g>
		<g>
			<rect x="163.3" y="931.2" class="st0" width="119.7" height="2.6"/>
		</g>
	</g>
	<g>
		<path class="st0" d="M190.4,262.1c-6.3,0-11.5-5.2-11.5-11.5c0-6.3,5.2-11.5,11.5-11.5c6.3,0,11.5,5.2,11.5,11.5
			C201.8,257,196.7,262.1,190.4,262.1z M190.4,241.3c-5.1,0-9.3,4.2-9.3,9.3c0,5.1,4.2,9.3,9.3,9.3c5.1,0,9.3-4.2,9.3-9.3
			C199.7,245.5,195.5,241.3,190.4,241.3z"/>
	</g>
	<g>
		<path class="st0" d="M209.9,320.6c-7.7,0-13.9-4.5-14-4.6c-11.5-7.6-9.7-22.3-9.7-22.9l1.3-19.2l-22,22.4
			c-4.1,3.1-8.2,4.7-12.6,4.7c-7.4,0-12.5-4.6-12.5-4.6l-15.3-13.8c-10.3-12.2-0.3-26.2-0.1-26.4c5.8-8.8,16.2-9.8,20.4-9.8
			c1.5,0,2.5,0.1,2.5,0.1l19.2,1.4l-22.5-22c-10.2-13.4-0.5-24.7,0-25.2l13.8-15.4c3.7-3.1,7.8-4.7,12.4-4.7c7.6,0,13.7,4.4,14,4.6
			c11.5,7.6,9.7,22.3,9.7,22.9l-1.4,19.2l22-22.4c4.1-3.1,8.2-4.7,12.6-4.7c7.4,0,12.3,4.5,12.6,4.6l15.3,13.8
			c10.3,12.2,0.3,26.2,0.1,26.4c-5.8,8.8-16.2,9.8-20.4,9.8c-1.5,0-2.5-0.1-2.5-0.1l-19.2-1.4l22.4,22c10.3,13.4,0.5,24.7,0,25.2
			l-13.8,15.3C218.6,319,214.5,320.6,209.9,320.6z M188.4,293.3c-0.1,0.5-1.5,14.2,8.7,20.9c0,0,5.8,4.2,12.7,4.2
			c4,0,7.7-1.4,10.9-4.1l13.7-15.2c0.4-0.4,9-10.4-0.1-22.2L211,253.9l0.1-0.5c0.1-0.4,0.1-0.8,0.1-1.2l0.1-1.1l21.8,1.5
			c0.1,0,1,0.1,2.3,0.1c4.8,0,13.5-1.1,18.6-8.9c0.9-1.3,9-13.1,0.1-23.6l-15.2-13.7c-0.5-0.4-4.9-4.1-11.1-4.1
			c-3.8,0-7.6,1.4-11.2,4.1L193.6,230l-2.8-0.3l0-1.1l1.5-20.6c0.1-0.5,1.5-14.1-8.7-20.9c-0.6-0.4-6.1-4.2-12.7-4.2
			c-4,0-7.7,1.4-10.9,4.1l-13.7,15.3c-0.4,0.4-9,10.3,0.1,22.2l23.4,22.9l-0.2,2.9l-21.8-1.5c-0.1,0-1-0.1-2.3-0.1
			c-4.8,0-13.5,1.1-18.6,8.8c-0.9,1.3-9,13.1-0.1,23.6l15.2,13.7c0.5,0.4,5,4.1,11.1,4.1c3.8,0,7.6-1.4,11.2-4.1l22.9-23.4l2.9,0.3
			L188.4,293.3z"/>
	</g>
	<g>
		<path class="st0" d="M306.7,197.6c-7.5,0-13.6-6.1-13.6-13.6c0-7.5,6.1-13.6,13.6-13.6h59.7c7.5,0,13.6,6.1,13.6,13.6
			c0,7.5-6.1,13.6-13.6,13.6H306.7z M306.7,172.7c-6.3,0-11.4,5.1-11.4,11.4c0,6.3,5.1,11.4,11.4,11.4h59.7
			c6.3,0,11.4-5.1,11.4-11.4c0-6.3-5.1-11.4-11.4-11.4H306.7z"/>
	</g>
	<g>
		<path class="st0" d="M306.7,231.9c-7.5,0-13.6-6.1-13.6-13.6c0-7.5,6.1-13.6,13.6-13.6h59.7c7.5,0,13.6,6.1,13.6,13.6
			c0,7.5-6.1,13.6-13.6,13.6H306.7z M306.7,206.9c-6.3,0-11.4,5.1-11.4,11.4c0,6.3,5.1,11.4,11.4,11.4h59.7
			c6.3,0,11.4-5.1,11.4-11.4c0-6.3-5.1-11.4-11.4-11.4H306.7z"/>
	</g>
	<g>
		<path class="st0" d="M306.7,266.2c-7.5,0-13.6-6.1-13.6-13.6c0-7.5,6.1-13.6,13.6-13.6h59.7c7.5,0,13.6,6.1,13.6,13.6
			c0,7.5-6.1,13.6-13.6,13.6H306.7z M306.7,241.2c-6.3,0-11.4,5.1-11.4,11.4c0,6.3,5.1,11.4,11.4,11.4h59.7
			c6.3,0,11.4-5.1,11.4-11.4c0-6.3-5.1-11.4-11.4-11.4H306.7z"/>
	</g>
	<g>
		<path class="st0" d="M85.1,365.7v-204c0-14,11.4-25.5,25.5-25.5h261.1c14,0,25.5,11.4,25.5,25.5v204H85.1z M110.6,138.4
			c-12.8,0-23.3,10.4-23.3,23.3v201.8H395V161.7c0-12.8-10.4-23.3-23.3-23.3H110.6z"/>
	</g>
	<g>
		<path class="st0" d="M127.8,397.3c-7.6,0-13.8-6.2-13.8-13.8c0-7.6,6.2-13.8,13.8-13.8h52.4c7.6,0,13.8,6.2,13.8,13.8
			c0,7.6-6.2,13.8-13.8,13.8H127.8z M127.8,371.9c-6.4,0-11.6,5.2-11.6,11.6c0,6.4,5.2,11.6,11.6,11.6h52.4
			c6.4,0,11.6-5.2,11.6-11.6c0-6.4-5.2-11.6-11.6-11.6H127.8z"/>
	</g>
	<g>
		<path class="st0" d="M302.1,397.3c-7.6,0-13.8-6.2-13.8-13.8c0-7.6,6.2-13.8,13.8-13.8h52.4c7.6,0,13.8,6.2,13.8,13.8
			c0,7.6-6.2,13.8-13.8,13.8H302.1z M302.1,371.9c-6.4,0-11.6,5.2-11.6,11.6c0,6.4,5.2,11.6,11.6,11.6h52.4
			c6.4,0,11.6-5.2,11.6-11.6c0-6.4-5.2-11.6-11.6-11.6H302.1z"/>
	</g>
	<g>
		<path class="st0" d="M190.4,335.5c-46.8,0-84.9-38.1-84.9-84.9c0-46.8,38.1-84.9,84.9-84.9c46.8,0,84.9,38.1,84.9,84.9
			C275.2,297.4,237.1,335.5,190.4,335.5z M190.4,168c-45.6,0-82.7,37.1-82.7,82.7c0,45.6,37.1,82.7,82.7,82.7
			c45.6,0,82.7-37.1,82.7-82.7C273,205.1,235.9,168,190.4,168z"/>
	</g>
	<g>
		<g>
			<path class="st0" d="M466.4,290.5H243.1v19.9h223.3V290.5z M463.7,307.8h-218v-14.6h218V307.8z"/>
		</g>
		<g>
			<path class="st0" d="M234.7,366.3c-7.9,0-14.3,6.4-14.3,14.3c0,7.9,6.4,14.3,14.3,14.3c7.9,0,14.3-6.4,14.3-14.3
				C249,372.7,242.6,366.3,234.7,366.3z M234.7,392.2c-6.4,0-11.6-5.2-11.6-11.6c0-6.4,5.2-11.6,11.6-11.6c6.4,0,11.6,5.2,11.6,11.6
				C246.3,387,241.1,392.2,234.7,392.2z"/>
		</g>
		<g>
			<path class="st0" d="M474.8,366.3c-7.9,0-14.3,6.4-14.3,14.3c0,7.9,6.4,14.3,14.3,14.3c7.9,0,14.3-6.4,14.3-14.3
				C489.1,372.7,482.7,366.3,474.8,366.3z M474.8,392.2c-6.4,0-11.6-5.2-11.6-11.6c0-6.4,5.2-11.6,11.6-11.6
				c6.4,0,11.6,5.2,11.6,11.6C486.4,387,481.2,392.2,474.8,392.2z"/>
		</g>
		<g>
			<path class="st0" d="M470.6,278.2H238.9c-17,0-30.9,13.9-30.9,30.9v70.3c0,17,13.9,30.9,30.9,30.9h231.7
				c17,0,30.9-13.9,30.9-30.9v-70.3C501.5,292,487.7,278.2,470.6,278.2z M255.3,407.6l-0.8-0.1l0.2-0.8c0.3-1.4,0.7-2.8,1.4-4.5
				l0.1-0.3c0.5-1.3,1.2-2.5,1.9-3.8l0.3-0.6c0.7-1.1,1.5-2.3,2.6-3.5l0.3-0.3c0.9-1,1.9-2,2.9-2.8c0.1-0.1,0.3-0.3,0.5-0.4
				c1.1-0.9,2.2-1.6,3.4-2.3l0.6-0.3c1.3-0.7,2.6-1.3,3.8-1.8l0.5-0.2c1.5-0.5,2.9-0.9,4.3-1.1l0.3,0c1.6-0.3,3.2-0.4,4.7-0.4h144.9
				c1.5,0,3.1,0.1,4.7,0.4l0.3,0c1.4,0.2,2.8,0.6,4.5,1.2l0.3,0.1c1.3,0.5,2.6,1.1,3.8,1.8l0.5,0.3c1.2,0.7,2.3,1.5,3.5,2.4l0.4,0.3
				c1,0.9,2,1.8,2.9,2.8l0.5,0.5c0.9,1,1.7,2.2,2.4,3.3l0.3,0.6c0.7,1.2,1.4,2.5,1.9,3.8l0.2,0.5c0.6,1.5,1,2.9,1.3,4.3l0.2,0.8
				H255.3z M498.9,379.4c0,15.6-12.7,28.2-28.2,28.2h-12.9l-0.1-0.5l-0.1-0.6c-0.1-0.5-0.2-0.9-0.3-1.3c-0.1-0.5-0.2-0.9-0.4-1.4
				c-0.1-0.4-0.3-0.8-0.4-1.3c-0.2-0.4-0.3-0.9-0.5-1.3c-0.2-0.4-0.3-0.8-0.5-1.2c-0.2-0.4-0.4-0.8-0.6-1.2
				c-0.2-0.4-0.4-0.8-0.6-1.2c-0.2-0.4-0.5-0.8-0.7-1.2c-0.2-0.4-0.5-0.8-0.7-1.1c-0.3-0.4-0.5-0.7-0.8-1.1c-0.3-0.4-0.5-0.7-0.8-1
				c-0.3-0.4-0.6-0.7-0.9-1c-0.3-0.3-0.6-0.6-0.9-1c-0.3-0.3-0.6-0.6-1-1l-0.2-0.2c-0.3-0.2-0.5-0.5-0.8-0.7
				c-0.3-0.3-0.6-0.5-0.9-0.8l-0.3-0.3c-0.3-0.2-0.5-0.4-0.8-0.6c-0.3-0.2-0.7-0.5-1.2-0.8c0,0-0.8-0.5-1.1-0.7
				c-0.4-0.2-0.8-0.5-1.3-0.7l-0.2-0.1c-0.3-0.2-0.6-0.3-0.9-0.5c-0.4-0.2-0.7-0.3-1.1-0.5l-0.6-0.2c-0.3-0.1-0.5-0.2-0.8-0.3
				c-0.3-0.1-0.7-0.2-1.1-0.4l-0.4-0.1c0,0-0.9-0.3-1.1-0.4c-0.4-0.1-0.9-0.2-1.3-0.3l-0.7-0.2c-0.2-0.1-0.5-0.1-0.7-0.2
				c-0.5-0.1-1-0.2-1.5-0.2c0,0-1.1-0.1-1.2-0.2c-0.9-0.1-1.9-0.1-2.8-0.1H282.3c-1,0-1.9,0-2.8,0.1c-0.2,0-1.2,0.2-1.2,0.2
				c-0.5,0.1-1,0.1-1.5,0.2c-0.2,0-1.2,0.3-1.2,0.3c-0.5,0.1-1,0.2-1.5,0.3c-0.2,0.1-1.6,0.5-1.6,0.5c-0.4,0.1-0.7,0.2-1,0.4
				c-0.3,0.1-0.5,0.2-0.8,0.3l-0.6,0.3c-0.4,0.2-0.7,0.3-1.1,0.5c-0.3,0.1-0.6,0.3-0.9,0.4l-0.3,0.2c-0.4,0.2-0.8,0.4-1.2,0.7
				c-0.3,0.2-1.2,0.7-1.2,0.7c-0.4,0.2-0.7,0.5-1.1,0.7c-0.3,0.2-0.6,0.4-0.8,0.6l-0.4,0.3c-0.3,0.2-0.6,0.5-0.9,0.8
				c-0.3,0.2-0.5,0.5-0.8,0.7l-0.4,0.3c-0.3,0.3-0.6,0.5-0.8,0.8c-0.2,0.2-0.9,1-0.9,1c-0.3,0.3-0.6,0.7-0.9,1
				c-0.2,0.3-0.5,0.6-0.8,1c-0.3,0.4-0.5,0.7-0.8,1.1c-0.2,0.4-0.5,0.7-0.7,1.1c-0.2,0.4-0.5,0.8-0.7,1.2c-0.2,0.4-0.4,0.8-0.6,1.2
				c-0.2,0.4-0.4,0.8-0.6,1.3c-0.2,0.4-0.4,0.8-0.5,1.2c-0.2,0.4-0.3,0.9-0.5,1.4c-0.1,0.4-0.3,0.8-0.4,1.2
				c-0.1,0.5-0.3,0.9-0.4,1.4c-0.1,0.4-0.2,0.9-0.3,1.3l-0.1,0.6l-0.1,0.5h-12.9c-15.6,0-28.2-12.7-28.2-28.2v-70.3
				c0-15.6,12.7-28.3,28.2-28.3h231.7c15.6,0,28.2,12.7,28.2,28.3V379.4z"/>
		</g>
		<g>
			<path class="st0" d="M291,387.6c-0.7,0-1.3,0.6-1.3,1.3v14.2c0,0.7,0.6,1.3,1.3,1.3c0.7,0,1.3-0.6,1.3-1.3v-14.2
				C292.3,388.2,291.7,387.6,291,387.6z"/>
		</g>
		<g>
			<path class="st0" d="M312.2,387.6c-0.7,0-1.3,0.6-1.3,1.3v14.2c0,0.7,0.6,1.3,1.3,1.3c0.7,0,1.3-0.6,1.3-1.3v-14.2
				C313.6,388.2,313,387.6,312.2,387.6z"/>
		</g>
		<g>
			<path class="st0" d="M333.5,387.6c-0.7,0-1.3,0.6-1.3,1.3v14.2c0,0.7,0.6,1.3,1.3,1.3c0.7,0,1.3-0.6,1.3-1.3v-14.2
				C334.8,388.2,334.2,387.6,333.5,387.6z"/>
		</g>
		<g>
			<path class="st0" d="M354.7,387.6c-0.7,0-1.3,0.6-1.3,1.3v14.2c0,0.7,0.6,1.3,1.3,1.3c0.7,0,1.3-0.6,1.3-1.3v-14.2
				C356.1,388.2,355.5,387.6,354.7,387.6z"/>
		</g>
		<g>
			<path class="st0" d="M376,387.6c-0.7,0-1.3,0.6-1.3,1.3v14.2c0,0.7,0.6,1.3,1.3,1.3c0.7,0,1.3-0.6,1.3-1.3v-14.2
				C377.3,388.2,376.8,387.6,376,387.6z"/>
		</g>
		<g>
			<path class="st0" d="M397.3,387.6c-0.7,0-1.3,0.6-1.3,1.3v14.2c0,0.7,0.6,1.3,1.3,1.3c0.7,0,1.3-0.6,1.3-1.3v-14.2
				C398.6,388.2,398,387.6,397.3,387.6z"/>
		</g>
		<g>
			<path class="st0" d="M418.5,387.6c-0.7,0-1.3,0.6-1.3,1.3v14.2c0,0.7,0.6,1.3,1.3,1.3c0.7,0,1.3-0.6,1.3-1.3v-14.2
				C419.9,388.2,419.3,387.6,418.5,387.6z"/>
		</g>
	</g>
	<g>
		<path class="st0" d="M1312.2,315.4h-172.7c-9.4,0-17-7.6-17-17V40.8c0-9.4,7.6-17,17-17h172.7c9.4,0,17,7.6,17,17v257.6
			C1329.2,307.8,1321.5,315.4,1312.2,315.4z M1139.4,26.4c-7.9,0-14.4,6.5-14.4,14.4v257.6c0,7.9,6.5,14.4,14.4,14.4h172.7
			c7.9,0,14.4-6.5,14.4-14.4V40.8c0-7.9-6.5-14.4-14.4-14.4H1139.4z"/>
	</g>
	<g>
		<path class="st0" d="M1310.8,286.1h-170V44.7h170V286.1z M1143.4,283.5h164.7V47.3h-164.7V283.5z"/>
	</g>
	<g>
		<path class="st0" d="M1246.1,305.8h-40.6c-3.6,0-6.6-2.9-6.6-6.6c0-3.6,2.9-6.6,6.6-6.6h40.6c3.6,0,6.6,2.9,6.6,6.6
			C1252.6,302.8,1249.7,305.8,1246.1,305.8z M1205.5,295.3c-2.2,0-3.9,1.8-3.9,3.9c0,2.2,1.8,3.9,3.9,3.9h40.6
			c2.2,0,3.9-1.8,3.9-3.9c0-2.2-1.8-3.9-3.9-3.9"/>
	</g>
	<g>
		<g>
			<path class="st0" d="M1183.9,360.3h-83.6c-6.6,0-12-5.4-12-12.1v-168c0-6.6,5.4-12.1,12-12.1h83.6c6.6,0,12,5.4,12,12.1v168
				C1196,354.9,1190.6,360.3,1183.9,360.3z M1100.3,170.8c-5.2,0-9.4,4.2-9.4,9.4v168c0,5.2,4.2,9.4,9.4,9.4h83.6
				c5.2,0,9.4-4.2,9.4-9.4v-168c0-5.2-4.2-9.4-9.4-9.4H1100.3z"/>
		</g>
		<g>
			<path class="st0" d="M1181.1,329.7h-77.9V183.8h77.9V329.7z M1105.8,327h72.6V186.4h-72.6V327z"/>
		</g>
		<g>
			<path class="st0" d="M1154.6,348.7h-25c-2.8,0-5.1-2.3-5.1-5.1c0-2.8,2.3-5.1,5.1-5.1h25c2.8,0,5.1,2.3,5.1,5.1
				C1159.7,346.5,1157.4,348.7,1154.6,348.7z M1129.6,341.2c-1.3,0-2.4,1.1-2.4,2.4c0,1.3,1.1,2.4,2.4,2.4h25c1.3,0,2.4-1.1,2.4-2.4
				c0-1.3-1.1-2.4-2.4-2.4H1129.6z"/>
		</g>
		<g>
			<line class="st1" x1="1167" y1="343.7" x2="1179" y2="343.7"/>
			<rect x="1167" y="342.3" class="st0" width="12" height="2.6"/>
		</g>
		<g>
			<line class="st1" x1="1105.2" y1="343.7" x2="1117.2" y2="343.7"/>
			<rect x="1105.2" y="342.3" class="st0" width="12" height="2.6"/>
		</g>
	</g>
	<g>
		<path class="st0" d="M1361.9,360.1h-87.1c-6.5,0-11.7-5.3-11.7-11.7v-87.1c0-6.5,5.3-11.7,11.7-11.7h87.1
			c6.5,0,11.7,5.3,11.7,11.7v87.1C1373.6,354.8,1368.4,360.1,1361.9,360.1z M1274.7,252.1c-5,0-9.1,4.1-9.1,9.1v87.1
			c0,5,4.1,9.1,9.1,9.1h87.1c5,0,9.1-4.1,9.1-9.1v-87.1c0-5-4.1-9.1-9.1-9.1H1274.7z"/>
	</g>
	<g>
		<path class="st0" d="M1318.3,342.7c-20.9,0-37.9-17-37.9-37.9c0-20.9,17-37.9,37.9-37.9c20.9,0,37.9,17,37.9,37.9
			C1356.3,325.7,1339.2,342.7,1318.3,342.7z M1318.3,269.5c-19.5,0-35.3,15.8-35.3,35.3c0,19.5,15.8,35.3,35.3,35.3
			c19.5,0,35.3-15.8,35.3-35.3C1353.6,285.3,1337.8,269.5,1318.3,269.5z"/>
	</g>
	<g>
		<path class="st0" d="M1319.6,250.8h-2.6v-90.3c0-11.5,9.4-20.9,20.9-20.9h3c11.5,0,20.9,9.4,20.9,20.9v56.6h-2.6v-56.6
			c0-10.1-8.2-18.3-18.3-18.3h-3c-10.1,0-18.3,8.2-18.3,18.3V250.8z"/>
	</g>
	<g>
		<g>
			<path class="st0" d="M1370,240.5h-6v-14.1h6c3.7,0,6.6,3,6.6,6.6v0.9C1376.6,237.5,1373.7,240.5,1370,240.5z M1366.7,237.8h3.3
				c2.2,0,4-1.8,4-4v-0.9c0-2.2-1.8-4-4-4h-3.3V237.8z"/>
		</g>
		<g>
			<rect x="1363" y="230.1" class="st1" width="2.3" height="6.8"/>
			<rect x="1361.7" y="228.8" class="st0" width="5" height="9.4"/>
		</g>
		<g>
			<path class="st1" d="M1358.3,217.1v20.3c0,1.3,1.1,2.3,2.4,2.3c1.3,0,2.3-1.1,2.3-2.3v-20.3H1358.3z"/>
			<path class="st0" d="M1360.7,241.1c-2,0-3.7-1.6-3.7-3.7v-21.6h7.3v21.6C1364.3,239.4,1362.7,241.1,1360.7,241.1z M1359.6,237.4
				c0,0.6,0.5,1,1,1c0.6,0,1-0.5,1-1 M1361.7,218.4h-2.1"/>
		</g>
	</g>
	<g>
		<g>
			<path class="st0" d="M1370,212.8h-6v-14.1h6c3.7,0,6.6,3,6.6,6.6v0.9C1376.6,209.9,1373.7,212.8,1370,212.8z M1366.7,210.2h3.3
				c2.2,0,4-1.8,4-4v-0.9c0-2.2-1.8-4-4-4h-3.3V210.2z"/>
		</g>
		<g>
			<rect x="1363" y="202.5" class="st1" width="2.3" height="6.8"/>
			<rect x="1361.7" y="201.2" class="st0" width="5" height="9.4"/>
		</g>
		<g>
			<path class="st1" d="M1358.3,189.5v20.3c0,1.3,1.1,2.3,2.4,2.3c1.3,0,2.3-1.1,2.3-2.3v-20.3H1358.3z"/>
			<path class="st0" d="M1360.7,213.5c-2,0-3.7-1.6-3.7-3.7v-21.6h7.3v21.6C1364.3,211.8,1362.7,213.5,1360.7,213.5z M1359.6,209.8
				c0,0.6,0.5,1,1,1c0.6,0,1-0.5,1-1 M1361.7,190.8h-2.1"/>
		</g>
	</g>
	<g>
		<g>
			<path class="st0" d="M944.5,582.5H833.3c-13,0-23.6-10.6-23.6-23.6V258.5c0-13,10.6-23.6,23.6-23.6h111.3
				c13,0,23.6,10.6,23.6,23.6v300.4C968.1,571.9,957.5,582.5,944.5,582.5z M833.3,237.5c-11.5,0-20.9,9.4-20.9,20.9v300.4
				c0,11.5,9.4,20.9,20.9,20.9h111.3c11.5,0,20.9-9.4,20.9-20.9V258.5c0-11.5-9.4-20.9-20.9-20.9H833.3z"/>
		</g>
		<g>
			<line class="st1" x1="832.3" y1="286.3" x2="945.5" y2="286.3"/>
			<rect x="832.3" y="285" class="st0" width="113.1" height="2.6"/>
		</g>
		<g>
			<line class="st1" x1="832.3" y1="340.1" x2="945.5" y2="340.1"/>
			<rect x="832.3" y="338.7" class="st0" width="113.1" height="2.6"/>
		</g>
		<g>
			<line class="st1" x1="832.3" y1="393.8" x2="945.5" y2="393.8"/>
			<rect x="832.3" y="392.5" class="st0" width="113.1" height="2.6"/>
		</g>
		<g>
			<path class="st0" d="M888.9,505.5c-13,0-23.6-10.6-23.6-23.6c0-13,10.6-23.6,23.6-23.6c13,0,23.6,10.6,23.6,23.6
				C912.5,494.9,901.9,505.5,888.9,505.5z M888.9,461c-11.5,0-20.9,9.4-20.9,20.9c0,11.5,9.4,20.9,20.9,20.9
				c11.5,0,20.9-9.4,20.9-20.9C909.8,470.4,900.4,461,888.9,461z"/>
		</g>
		<g>
			<path class="st0" d="M888.9,555.6c-7.4,0-13.4-6-13.4-13.4c0-7.4,6-13.4,13.4-13.4s13.4,6,13.4,13.4
				C902.3,549.6,896.3,555.6,888.9,555.6z M888.9,531.5c-5.9,0-10.7,4.8-10.7,10.7c0,5.9,4.8,10.7,10.7,10.7
				c5.9,0,10.7-4.8,10.7-10.7C899.6,536.3,894.8,531.5,888.9,531.5z"/>
		</g>
	</g>
	<g>
		<g>
			<path class="st0" d="M736.1,560.2H412.4c-8.7,0-15.7-7.1-15.7-15.7V332c0-8.7,7.1-15.7,15.7-15.7h323.6c8.7,0,15.7,7.1,15.7,15.7
				v212.6C751.8,553.2,744.8,560.2,736.1,560.2z M412.4,318.9c-7.2,0-13.1,5.9-13.1,13.1v212.6c0,7.2,5.9,13.1,13.1,13.1h323.6
				c7.2,0,13.1-5.9,13.1-13.1V332c0-7.2-5.9-13.1-13.1-13.1H412.4z"/>
		</g>
		<g>
			<path class="st0" d="M729.9,537.4H418.6V339h311.3V537.4z M421.3,534.8h306V341.7h-306V534.8z"/>
		</g>
		<g>
			<path class="st0" d="M632.3,589.7H509.6v-32.1h122.7V589.7z M512.2,587h117.5v-26.8H512.2V587z"/>
		</g>
		<g>
			<path class="st0" d="M657.5,612.5H484.4v-9.7c0-8.7,7.1-15.7,15.7-15.7h141.7c8.7,0,15.7,7.1,15.7,15.7V612.5z M487,609.8h167.9
				v-7.1c0-7.2-5.9-13.1-13.1-13.1H500.1c-7.2,0-13.1,5.9-13.1,13.1V609.8z"/>
		</g>
	</g>
	<g>
		<path class="st0" d="M959,639.8h-29.5V605l1.1-0.2c1.3-0.2,2.6-0.3,3.9-0.3c13.5,0,24.6,11,24.6,24.6V639.8z M932,637.1h24.3V629
			c0-12.1-9.8-21.9-21.9-21.9c-0.8,0-1.6,0-2.3,0.1V637.1z"/>
	</g>
	<g>
		<path class="st0" d="M934.4,688.4c-13.5,0-24.6-11-24.6-24.6v-26.8H959v26.8C959,677.4,947.9,688.4,934.4,688.4z M912.5,639.8
			v24.1c0,12.1,9.8,21.9,21.9,21.9c12.1,0,21.9-9.8,21.9-21.9v-24.1H912.5z"/>
	</g>
	<g>
		<path class="st0" d="M932,639.8h-22.2V629c0-12.2,8.7-22.4,20.7-24.3l1.5-0.2V639.8z M912.5,637.1h16.9v-29.4
			c-9.9,2.3-16.9,11-16.9,21.4V637.1z"/>
	</g>
	<g>
		<path class="st0" d="M873.9,647.8h-326l-0.4-0.5c-1.8-2.4-2.7-5.3-2.7-8.3V437.3c0-7.8,6.3-14.2,14.2-14.2h303.8
			c7.8,0,14.2,6.4,14.2,14.2V639c0,3-0.9,5.8-2.7,8.3L873.9,647.8z M549.3,645.1h323.2c1.2-1.9,1.8-4,1.8-6.2V437.3
			c0-6.4-5.2-11.5-11.5-11.5H559c-6.4,0-11.5,5.2-11.5,11.5V639C547.5,641.2,548.1,643.3,549.3,645.1z"/>
	</g>
	<g>
		<path class="st0" d="M860.9,630.7h-300V441.9h300V630.7z M563.5,628h294.7V444.5H563.5V628z"/>
	</g>
	<g>
		<path class="st0" d="M892,706.1H743.6l-2.7-9.6h-60l-2.7,9.6H529.9c-6.1,0-9.9-1.4-11.5-4.3c-2-3.8,0.9-8.2,1-8.4l28.4-48.2H874
			l28.5,48.3c0.1,0.1,3,4.6,1,8.4C901.9,704.6,898,706.1,892,706.1z M745.6,703.4H892c4.9,0,8.1-1,9.1-2.9c1.3-2.3-0.9-5.7-0.9-5.7
			l-27.8-47H549.4l-27.7,47c-0.1,0.1-2.2,3.4-0.9,5.8c1,1.9,4.2,2.9,9.1,2.9h146.3l2.7-9.6h64L745.6,703.4z"/>
	</g>
	<g>
		<path class="st0" d="M746.3,706.1h-70.9l3.4-12.3h64L746.3,706.1z M679,703.4h63.9l-1.9-7h-60L679,703.4z"/>
	</g>
	<g>
		<path class="st0" d="M876.8,689H545.1l14-31.9h303.7L876.8,689z M549.1,686.3h323.6l-11.7-26.6H560.8L549.1,686.3z"/>
	</g>
	<g>
		<path class="st0" d="M1318.3,329.7c-13.7,0-24.9-11.2-24.9-24.9s11.2-24.9,24.9-24.9c13.7,0,24.9,11.2,24.9,24.9
			S1332,329.7,1318.3,329.7z M1318.3,282.5c-12.3,0-22.3,10-22.3,22.3s10,22.3,22.3,22.3s22.3-10,22.3-22.3
			S1330.6,282.5,1318.3,282.5z"/>
	</g>
	<g>
		<g>
			<path class="st0" d="M1069.8,829.4h-16.9c-3.7,0-6.8-3-6.8-6.8c0-3.7,3-6.8,6.8-6.8h16.9c3.7,0,6.8,3,6.8,6.8
				C1076.6,826.4,1073.5,829.4,1069.8,829.4z M1052.9,818.5c-2.3,0-4.1,1.9-4.1,4.1c0,2.3,1.9,4.1,4.1,4.1h16.9
				c2.3,0,4.1-1.9,4.1-4.1c0-2.3-1.9-4.1-4.1-4.1H1052.9z"/>
		</g>
		<g>
			<g>
				<path class="st0" d="M1158,863.4h-106.1c-8.5,0-15.5-6.9-15.5-15.5V671.1c0-8.5,6.9-15.5,15.5-15.5H1158
					c8.5,0,15.5,6.9,15.5,15.5v176.8C1173.4,856.4,1166.5,863.4,1158,863.4z M1051.9,658.3c-7.1,0-12.8,5.8-12.8,12.8v176.8
					c0,7.1,5.8,12.8,12.8,12.8H1158c7.1,0,12.8-5.8,12.8-12.8V671.1c0-7.1-5.8-12.8-12.8-12.8H1051.9z"/>
			</g>
			<g>
				<path class="st0" d="M1104.9,736.1c-15.3,0-27.8-12.5-27.8-27.8c0-15.3,12.5-27.8,27.8-27.8c15.4,0,27.8,12.5,27.8,27.8
					C1132.8,723.6,1120.3,736.1,1104.9,736.1z M1104.9,683.1c-13.9,0-25.2,11.3-25.2,25.2c0,13.9,11.3,25.2,25.2,25.2
					c13.9,0,25.2-11.3,25.2-25.2C1130.1,694.4,1118.8,683.1,1104.9,683.1z"/>
			</g>
			<g>
				<path class="st0" d="M1104.9,853.5c-30.2,0-54.7-24.6-54.7-54.7c0-30.2,24.6-54.8,54.7-54.8c30.2,0,54.7,24.6,54.7,54.8
					C1159.7,829,1135.1,853.5,1104.9,853.5z M1104.9,746.7c-28.7,0-52.1,23.4-52.1,52.1c0,28.7,23.4,52.1,52.1,52.1
					c28.7,0,52.1-23.4,52.1-52.1C1157,770,1133.7,746.7,1104.9,746.7z"/>
			</g>
			<g>
				<path class="st0" d="M1127.5,658.3h-45.1V612h45.1V658.3z M1085,655.7h39.8v-41H1085V655.7z"/>
			</g>
			<g>
				<g>
					<path class="st2" d="M1130.3,577.8V575h-2.9C1128.4,575.9,1129.4,576.8,1130.3,577.8z"/>
				</g>
				<g>
					<path class="st2" d="M1082.5,575h-4.1v4.2C1079.7,577.6,1081,576.2,1082.5,575z"/>
				</g>
				<g>
					<path class="st2" d="M1127.3,626.8h2.9V624C1129.4,625,1128.4,625.9,1127.3,626.8z"/>
				</g>
				<g>
					<path class="st2" d="M1078.4,622.6v4.2h4.1C1081,625.5,1079.7,624.1,1078.4,622.6z"/>
				</g>
				<g>
					<path class="st0" d="M1118.6,589.2H1103v-15.6h15.6V589.2z M1105.7,586.6h10.3v-10.3h-10.3V586.6z"/>
				</g>
				<g>
					<path class="st0" d="M1131.6,602.2H1116v-15.6h15.6V602.2z M1118.6,599.6h10.3v-10.3h-10.3V599.6z"/>
				</g>
				<g>
					<path class="st0" d="M1131.6,615.2H1116v-15.6h15.6V615.2z M1118.6,612.5h10.3v-10.3h-10.3V612.5z"/>
				</g>
				<g>
					<path class="st0" d="M1118.6,602.2H1103v-15.6h15.6V602.2z M1105.7,599.6h10.3v-10.3h-10.3V599.6z"/>
				</g>
				<g>
					<path class="st0" d="M1105.7,576.3h-15.6v-7.7l0.8-0.3c4.3-1.8,8.8-2.8,13.5-2.9l1.3,0V576.3z M1092.7,573.6h10.3V568
						c-3.6,0.2-7,1-10.3,2.3V573.6z"/>
				</g>
				<g>
					<path class="st0" d="M1118.6,576.3H1103v-11l1.9,0c4.4,0,8.7,0.8,12.9,2.4l0.8,0.3V576.3z M1105.7,573.6h10.3v-3.8
						c-3.3-1.2-6.8-1.8-10.3-1.9V573.6z"/>
				</g>
				<g>
					<path class="st0" d="M1105.7,589.2h-15.6v-15.6h15.6V589.2z M1092.7,586.6h10.3v-10.3h-10.3V586.6z"/>
				</g>
				<g>
					<path class="st0" d="M1118.6,615.2H1103v-15.6h15.6V615.2z M1105.7,612.5h10.3v-10.3h-10.3V612.5z"/>
				</g>
				<g>
					<path class="st0" d="M1092.7,602.2h-15.6v-15.6h15.6V602.2z M1079.7,599.6h10.3v-10.3h-10.3V599.6z"/>
				</g>
				<g>
					<path class="st0" d="M1092.7,615.2h-15.6v-15.6h15.6V615.2z M1079.7,612.5h10.3v-10.3h-10.3V612.5z"/>
				</g>
				<g>
					<path class="st0" d="M1105.7,602.2h-15.6v-15.6h15.6V602.2z M1092.7,589.2v10.3h10.3v-10.3"/>
				</g>
				<g>
					<path class="st0" d="M1118.6,628.1H1103v-15.6h15.6V628.1z M1105.7,625.5h10.3v-10.3h-10.3V625.5z"/>
				</g>
				<g>
					<path class="st0" d="M1105.7,615.2h-15.6v-15.6h15.6V615.2z M1092.7,612.5h10.3v-10.3h-10.3V612.5z"/>
				</g>
				<g>
					<path class="st0" d="M1105.7,628.1h-15.6v-15.6h15.6V628.1z M1092.7,625.5h10.3v-10.3h-10.3V625.5z"/>
				</g>
				<g>
					<path class="st0" d="M1131.6,589.2H1116v-15.6h11.8l0.4,0.3c1.1,1,2.1,1.9,3,3l0.3,0.4V589.2z M1118.6,586.6h10.3v-8.3
						c-0.7-0.7-1.4-1.4-2.1-2h-8.2V586.6z"/>
				</g>
				<g>
					<path class="st1" d="M1127.3,626.8h-10v6"/>
				</g>
				<g>
					<path class="st0" d="M1127.8,628.1H1116v-15.6h15.6v12l-0.3,0.4c-0.9,1-1.9,2-3,3L1127.8,628.1z M1118.6,625.5h8.2
						c0.7-0.7,1.5-1.3,2.1-2v-8.3h-10.3V625.5z"/>
				</g>
				<g>
					<path class="st1" d="M1091.4,569.4c-3.2,1.4-6.2,3.3-8.9,5.6h8.9V569.4z"/>
					<path class="st0" d="M1092.7,576.3H1079l2.7-2.3c2.8-2.4,5.9-4.3,9.2-5.8l1.8-0.8V576.3z"/>
				</g>
				<g>
					<path class="st1" d="M1130.3,624c2.7-2.9,4.9-6.4,6.4-10.1h-6.4V624z"/>
					<path class="st0" d="M1129,627.4v-14.8h9.7l-0.7,1.8c-1.6,3.9-3.8,7.4-6.6,10.5L1129,627.4z M1134.6,615.2h-3 M1131.6,620.3"/>
				</g>
				<g>
					<path class="st0" d="M1140.5,602.2H1129v-15.6h8.6l0.3,0.8c1.8,4.3,2.6,8.8,2.6,13.5V602.2z M1131.6,599.6h6.3
						c-0.1-3.5-0.8-7-2.1-10.3h-4.2V599.6z"/>
				</g>
				<g>
					<path class="st1" d="M1130.3,587.9h6.4c-1.5-3.8-3.7-7.2-6.4-10.1V587.9z"/>
					<path class="st0" d="M1138.6,589.2h-9.7v-14.8l2.3,2.5c2.8,3.1,5.1,6.6,6.6,10.5L1138.6,589.2z"/>
				</g>
				<g>
					<path class="st0" d="M1105.7,636.5l-1.3,0c-4.7-0.1-9.2-1-13.5-2.9l-0.8-0.3v-7.8h15.6V636.5z M1092.7,628.1v3.4
						c3.3,1.3,6.8,2.1,10.3,2.3v-5.7"/>
				</g>
				<g>
					<path class="st0" d="M1137.6,615.2h-8.6v-15.6h11.6v1.3c0,4.6-0.9,9.2-2.6,13.5L1137.6,615.2z M1131.6,612.5h4.2
						c1.3-3.3,2-6.8,2.1-10.3h-6.3V612.5z"/>
				</g>
				<g>
					<path class="st0" d="M1104.9,636.5l-1.6-0.1l-0.3-1.3v-9.7h15.6v8.3l-0.8,0.3C1113.7,635.7,1109.3,636.5,1104.9,636.5z
						 M1105.7,628.1v5.7c3.5-0.1,7-0.7,10.3-1.9v-3.8H1105.7z"/>
				</g>
				<g>
					<path class="st0" d="M1079.7,602.2h-10.4v-1.3c0-4.6,0.9-9.2,2.6-13.5l0.3-0.8h7.4V602.2z M1072,599.6h5.1v-10.3h-3
						C1072.8,592.6,1072.1,596,1072,599.6z"/>
				</g>
				<g>
					<path class="st1" d="M1082.5,626.8c2.6,2.3,5.6,4.2,8.9,5.6v-5.6H1082.5z"/>
					<path class="st0" d="M1092.7,634.4l-1.8-0.8c-3.3-1.4-6.4-3.4-9.2-5.8l-2.7-2.3h13.7V634.4z M1090.1,628.1h-3.7"/>
				</g>
				<g>
					<path class="st0" d="M1092.7,589.2h-15.6v-10.5l0.3-0.4c1.3-1.5,2.7-3,4.3-4.4l0.4-0.3h10.7V589.2z M1079.7,586.6h10.3v-10.3
						h-7c-1.2,1.1-2.3,2.2-3.3,3.4V586.6z"/>
				</g>
				<g>
					<path class="st1" d="M1078.4,579.2c-2.2,2.6-3.9,5.6-5.2,8.8h5.2V579.2z"/>
					<path class="st0" d="M1079.7,589.2h-8.5l0.7-1.8c1.3-3.3,3.2-6.3,5.4-9.1l2.3-2.9V589.2z M1077.1,586.6v-3.4"/>
				</g>
				<g>
					<path class="st0" d="M1092.7,628.1H1082l-0.4-0.3c-1.6-1.4-3-2.8-4.3-4.4l-0.3-0.4v-10.5h15.6V628.1z M1083,625.5h7v-10.3
						h-10.3v7C1080.7,623.3,1081.8,624.4,1083,625.5z"/>
				</g>
				<g>
					<path class="st1" d="M1073.2,613.9c1.3,3.2,3.1,6.1,5.2,8.8v-8.8H1073.2z"/>
					<path class="st0" d="M1079.7,626.3l-2.3-2.9c-2.2-2.7-4.1-5.8-5.4-9.1l-0.7-1.8h8.5V626.3z M1077.1,618.5 M1077.1,615.2h-1.9"
						/>
				</g>
				<g>
					<path class="st0" d="M1079.7,615.2h-7.4l-0.3-0.8c-1.8-4.3-2.6-8.8-2.6-13.5v-1.3h10.4V615.2z M1074.1,612.5h3v-10.3h-5.1
						C1072.1,605.8,1072.8,609.2,1074.1,612.5z"/>
				</g>
			</g>
			<g>
				<path class="st0" d="M1193,783.6h-22.2v-55.7h22.2V783.6z M1173.4,781h16.9v-50.4h-16.9V781z"/>
			</g>
			<g>
				<path class="st0" d="M1343.7,818.8h-137.9c-8.5,0-15.5-6.9-15.5-15.5v-95.2c0-8.5,6.9-15.5,15.5-15.5h137.9
					c8.5,0,15.5,6.9,15.5,15.5v95.2C1359.2,811.9,1352.3,818.8,1343.7,818.8z M1205.8,695.3c-7.1,0-12.8,5.8-12.8,12.8v95.2
					c0,7.1,5.8,12.8,12.8,12.8h137.9c7.1,0,12.8-5.8,12.8-12.8v-95.2c0-7.1-5.8-12.8-12.8-12.8H1205.8z"/>
			</g>
			<g>
				<g>
					<path class="st0" d="M1076.6,827.8l-0.9-1c-7.3-7.6-11.3-17.6-11.3-28c0-22.4,18.2-40.6,40.6-40.6c10.5,0,20.5,4,28,11.3l1,0.9
						L1076.6,827.8z M1104.9,760.9c-20.9,0-37.9,17-37.9,37.9c0,9.4,3.4,18.3,9.6,25.2l53.5-53.5
						C1123.2,764.3,1114.3,760.9,1104.9,760.9z"/>
				</g>
				<g>
					<path class="st0" d="M1104.9,839.3c-11.2,0-21.6-4.4-29.3-12.5l-0.9-0.9l57.3-57.3l0.9,0.9c8.1,7.7,12.5,18.1,12.5,29.3
						C1145.5,821.1,1127.3,839.3,1104.9,839.3z M1078.5,825.9c7.1,7,16.5,10.8,26.5,10.8c20.9,0,37.9-17,37.9-37.9
						c0-10-3.8-19.4-10.8-26.5L1078.5,825.9z"/>
				</g>
			</g>
		</g>
		<g>
			<path class="st0" d="M1078.2,920.8h-149c-5.6,0-10.1-4.5-10.1-10.1v-94.8c0-5.6,4.5-10.1,10.1-10.1h149c5.6,0,10.1,4.5,10.1,10.1
				v94.8C1088.3,916.3,1083.7,920.8,1078.2,920.8z M929.2,808.5c-4.1,0-7.5,3.4-7.5,7.5v94.8c0,4.1,3.4,7.5,7.5,7.5h149
				c4.1,0,7.5-3.4,7.5-7.5v-94.8c0-4.1-3.4-7.5-7.5-7.5H929.2z"/>
		</g>
		<g>
			<path class="st0" d="M1003.7,908.1c-24.7,0-44.8-20.1-44.8-44.8c0-24.7,20.1-44.8,44.8-44.8c24.7,0,44.8,20.1,44.8,44.8
				C1048.5,888,1028.4,908.1,1003.7,908.1z M1003.7,821.2c-23.2,0-42.2,18.9-42.2,42.2c0,23.2,18.9,42.2,42.2,42.2
				c23.2,0,42.2-18.9,42.2-42.2C1045.8,840.1,1026.9,821.2,1003.7,821.2z"/>
		</g>
		<g>
			<path class="st0" d="M1027.8,808.5h-48.2v-12c0-7.1,5.8-12.8,12.8-12.8h22.5c7.1,0,12.8,5.8,12.8,12.8V808.5z M982.2,805.8h42.9
				v-9.4c0-5.6-4.6-10.2-10.2-10.2h-22.5c-5.6,0-10.2,4.6-10.2,10.2V805.8z"/>
		</g>
		<g>
			<g>
				<path class="st0" d="M981.5,889l-0.9-0.9c-6.8-6.4-10.8-15.4-10.8-24.8c0-18.7,15.2-33.9,33.9-33.9c9.3,0,18.4,3.9,24.8,10.8
					l0.9,0.9L981.5,889z M1003.7,832.1c-17.2,0-31.3,14-31.3,31.3c0,8.3,3.2,16.1,9,22l44.2-44.2
					C1019.7,835.3,1012,832.1,1003.7,832.1z"/>
			</g>
			<g>
				<path class="st0" d="M1003.7,897.2c-8.6,0-16.8-3.2-23.1-9.1l-1-0.9l48-48l0.9,1c5.9,6.3,9.1,14.5,9.1,23.1
					C1037.6,882,1022.4,897.2,1003.7,897.2z M983.4,887.1c5.7,4.8,12.8,7.5,20.3,7.5c17.2,0,31.3-14,31.3-31.3
					c0-7.5-2.7-14.6-7.5-20.3L983.4,887.1z"/>
			</g>
		</g>
		<g>
			<path class="st0" d="M962,808.2h-23l0-1.4c0.2-6.2,5.2-11.1,11.5-11.1c6.2,0,11.2,4.9,11.5,11.1L962,808.2z M941.8,805.5h17.3
				c-0.8-4.1-4.3-7.2-8.7-7.2C946.2,798.3,942.6,801.4,941.8,805.5z"/>
		</g>
		<g>
			<path class="st0" d="M1203.8,917.8h-54.6c-9.4,0-17-7.6-17-17v-9.6c0-9.4,7.6-17,17-17h54.6V917.8z M1149.2,876.7
				c-7.9,0-14.4,6.5-14.4,14.4v9.6c0,7.9,6.5,14.4,14.4,14.4h52v-38.4H1149.2z"/>
		</g>
		<g>
			<path class="st0" d="M1232.9,870.5h-25.2v-43.7h25.2c9.4,0,17,7.6,17,17v9.6C1250,862.9,1242.3,870.5,1232.9,870.5z
				 M1210.3,867.9h22.6c7.9,0,14.4-6.5,14.4-14.4v-9.6c0-7.9-6.5-14.4-14.4-14.4h-22.6V867.9z"/>
		</g>
		<g>
			<path class="st0" d="M1229.5,912h-28.4v-32.3h28.4V912z M1203.8,909.3h23.1v-27.1h-23.1V909.3z"/>
		</g>
		<g>
			<path class="st0" d="M1219.3,894.1h-11.6v-9.8h11.6V894.1z M1210.3,891.4h6.3v-4.6h-6.3V891.4z"/>
		</g>
		<g>
			<path class="st0" d="M1219.3,907.6h-11.6v-9.8h11.6V907.6z M1210.3,904.9h6.3v-4.6h-6.3V904.9z"/>
		</g>
	</g>
	<g>
		<g>
			<path class="st0" d="M562.2,781.1H519c-0.7,0-1.3-0.6-1.3-1.3s0.6-1.3,1.3-1.3h43.2c0.7,0,1.3,0.6,1.3,1.3S563,781.1,562.2,781.1
				z"/>
		</g>
		<g>
			<path class="st0" d="M540.6,802.8c-0.7,0-1.3-0.6-1.3-1.3v-43.2c0-0.7,0.6-1.3,1.3-1.3c0.7,0,1.3,0.6,1.3,1.3v43.2
				C541.9,802.2,541.3,802.8,540.6,802.8z"/>
		</g>
	</g>
	<g>
		<path class="st0" d="M788.3,796.3c-12.4,0-22.5-10.1-22.5-22.5c0-12.4,10.1-22.5,22.5-22.5c12.4,0,22.5,10.1,22.5,22.5
			C810.8,786.2,800.7,796.3,788.3,796.3z M788.3,753.9c-11,0-19.9,8.9-19.9,19.9c0,11,8.9,19.9,19.9,19.9c11,0,19.9-8.9,19.9-19.9
			C808.2,762.8,799.3,753.9,788.3,753.9z"/>
	</g>
	<g>
		<path class="st0" d="M466.4,206.6c-6.6,0-11.9-5.3-11.9-11.9c0-6.6,5.3-11.9,11.9-11.9c6.6,0,11.9,5.3,11.9,11.9
			C478.3,201.2,473,206.6,466.4,206.6z M466.4,185.4c-5.1,0-9.3,4.2-9.3,9.3c0,5.1,4.2,9.3,9.3,9.3c5.1,0,9.3-4.2,9.3-9.3
			C475.7,189.5,471.5,185.4,466.4,185.4z"/>
	</g>
	<g>
		<path class="st0" d="M767.1,249.8c-9.8,0-17.9-8-17.9-17.9c0-9.8,8-17.9,17.9-17.9c9.8,0,17.9,8,17.9,17.9
			C784.9,241.7,776.9,249.8,767.1,249.8z M767.1,216.7c-8.4,0-15.2,6.8-15.2,15.2c0,8.4,6.8,15.2,15.2,15.2
			c8.4,0,15.2-6.8,15.2-15.2C782.3,223.5,775.5,216.7,767.1,216.7z"/>
	</g>
	<g>
		<path class="st0" d="M682.8,801.4H631c-0.7,0-1.3-0.6-1.3-1.3c0-0.7,0.6-1.3,1.3-1.3h51.8c0.7,0,1.3,0.6,1.3,1.3
			C684.1,800.8,683.5,801.4,682.8,801.4z"/>
	</g>
	<g>
		<path class="st0" d="M783.6,859.9H651.3c-0.7,0-1.3-0.6-1.3-1.3s0.6-1.3,1.3-1.3h132.3c0.7,0,1.3,0.6,1.3,1.3
			S784.3,859.9,783.6,859.9z"/>
	</g>
	<g>
		<path class="st0" d="M643.3,240.3H493.1c-0.7,0-1.3-0.6-1.3-1.3s0.6-1.3,1.3-1.3h150.2c0.7,0,1.3,0.6,1.3,1.3
			S644,240.3,643.3,240.3z"/>
	</g>
	<g>
		<path class="st0" d="M702.2,185.4h-50c-0.7,0-1.3-0.6-1.3-1.3c0-0.7,0.6-1.3,1.3-1.3h50c0.7,0,1.3,0.6,1.3,1.3
			C703.5,184.8,702.9,185.4,702.2,185.4z"/>
	</g>
	<g>
		<path class="st0" d="M727.2,279.5h-50c-0.7,0-1.3-0.6-1.3-1.3c0-0.7,0.6-1.3,1.3-1.3h50c0.7,0,1.3,0.6,1.3,1.3
			C728.5,278.9,727.9,279.5,727.2,279.5z"/>
	</g>
</g>
</svg>
